<svg xmlns="http://www.w3.org/2000/svg" viewBox="0 0 48 48" role="img" aria-labelledby="title">
  <title id="title">Bluesky</title>
  <rect width="48" height="48" rx="10" fill="#1185fe"/>
  <path fill="#fff" d="M16.1 13.2c3 2.3 6.2 7 7.2 9.5.2.5.3.8.7.8s.5-.3.7-.8c1-2.5 4.2-7.2 7.2-9.5 2.2-1.7 5.7-3 5.7 1.2 0 .8-.5 6.8-.8 7.7-1.1 3.7-5 4.6-8.4 4 .6 1.1 1.6 2.2 2.2 3.2 1.9 3.1 1.1 6.2-3.8 3.1-1.8-1.1-2.7-2.4-2.8-2.6-.1.2-1 1.5-2.8 2.6-4.9 3.1-5.7 0-3.8-3.1.6-1 1.6-2.1 2.2-3.2-3.4.6-7.3-.3-8.4-4-.3-.9-.8-6.9-.8-7.7 0-4.2 3.5-2.9 5.7-1.2Z"/>
</svg>
