<svg xmlns="http://www.w3.org/2000/svg" viewBox="0 0 48 48" role="img" aria-labelledby="title">
  <title id="title">Discord</title>
  <rect width="48" height="48" rx="10" fill="#5865f2"/>
  <path fill="#fff" d="M17.3 16.8c2.4-1 4.9-1.3 6.7-1.3s4.3.3 6.7 1.3l1.9 4.9c.7 2.5.7 4.8.2 7.1-2.3 1.7-4.5 2.6-6.6 2.9l-.9-1.6c1-.3 1.9-.7 2.7-1.2-.4-.2-.8-.4-1.2-.6-1 .5-2 .7-2.8.7s-1.8-.2-2.8-.7c-.4.2-.8.4-1.2.6.8.5 1.7.9 2.7 1.2l-.9 1.6c-2.1-.3-4.3-1.2-6.6-2.9-.5-2.3-.5-4.6.2-7.1l1.9-4.9Zm4.3 7.5c0-1-.8-1.9-1.7-1.9s-1.7.9-1.7 1.9.8 1.9 1.7 1.9 1.7-.9 1.7-1.9Zm8.2 0c0-1-.8-1.9-1.7-1.9s-1.7.9-1.7 1.9.8 1.9 1.7 1.9 1.7-.9 1.7-1.9Z"/>
</svg>
