<?xml version="1.0" encoding="UTF-8" standalone="no"?>
<!-- Created with Inkscape (http://www.inkscape.org/) -->

<svg
   version="1.1"
   id="svg1"
   width="1000"
   height="1000"
   viewBox="0 0 1000 1000"
   sodipodi:docname="AZPP-Baked.svg"
   inkscape:version="1.4.4 (dcaf3e7, 2026-05-05)"
   inkscape:export-filename="AZPP.png"
   inkscape:export-xdpi="96"
   inkscape:export-ydpi="96"
   xmlns:inkscape="http://www.inkscape.org/namespaces/inkscape"
   xmlns:sodipodi="http://sodipodi.sourceforge.net/DTD/sodipodi-0.dtd"
   xmlns="http://www.w3.org/2000/svg"
   xmlns:svg="http://www.w3.org/2000/svg"
   xmlns:rdf="http://www.w3.org/1999/02/22-rdf-syntax-ns#"
   xmlns:cc="http://creativecommons.org/ns#"
   xmlns:dc="http://purl.org/dc/elements/1.1/"
   preserveAspectRatio="xMidYMid meet">
  <title
     id="title11">AZPP</title>
  <defs
     id="defs1">
    <clipPath
       clipPathUnits="userSpaceOnUse"
       id="clipPath6">
      <path
         d="M 243.66407,261.44779 C 332.47406,167.70298 443.10614,156.27891 579.41532,162.01584 743.61175,168.92648 865.58457,272.9338 842.74319,471.05532 815.03559,711.38542 481.84531,599.2849 385.2488,686.13689 350.11247,717.72872 332.88995,805.82618 360.8125,911.95945 295.77933,814.98712 295.39685,707.63753 329.94838,649.60993 404.60109,524.23439 511.10828,569.48288 507.4607,418.21788 503.91338,271.11 373.59582,260.6208 243.66407,261.44779 Z"
         id="flagClipPath" />
    </clipPath>
  </defs>
  <sodipodi:namedview
     id="namedview1"
     pagecolor="#ffffff"
     bordercolor="#999999"
     borderopacity="1"
     inkscape:showpageshadow="2"
     inkscape:pageopacity="0"
     inkscape:pagecheckerboard="0"
     inkscape:deskcolor="#d1d1d1"
     inkscape:zoom="0.615"
     inkscape:cx="499.18699"
     inkscape:cy="503.25203"
     inkscape:window-width="1368"
     inkscape:window-height="842"
     inkscape:window-x="-6"
     inkscape:window-y="-6"
     inkscape:window-maximized="1"
     inkscape:current-layer="layer5"
     inkscape:export-bgcolor="#00000000" />
  <g
     inkscape:groupmode="layer"
     id="layer5"
     inkscape:label="Logo"
     style="display:inline">
    <circle
       style="display:inline;fill:#fe9900;fill-opacity:1;stroke:#4c0000;stroke-width:0.879579;stroke-linecap:round;stroke-linejoin:round;paint-order:fill markers stroke"
       id="path1"
       cx="500"
       cy="499.99997"
       r="449.56021"
       inkscape:label="Background" />
    <path
       style="display:inline;fill:#052d60;fill-opacity:1;stroke:none;stroke-width:1px;stroke-linecap:butt;stroke-linejoin:miter;stroke-opacity:1"
       d="m 273.60249,146.71438 85.25295,741.50239 45.60041,5.94788 -83.27032,-775.20705 z"
       id="path3"
       inkscape:label="Pole" />
    <g
       inkscape:groupmode="layer"
       id="layer4"
       inkscape:label="Flag"
       style="display:inline">
      <g
         id="g6"
         clip-path="url(#clipPath6)">
        <g
           inkscape:groupmode="layer"
           id="layer6"
           inkscape:label="Flag Design"
           style="display:inline;fill:#ffffff;fill-opacity:1;stroke:none">
          <rect
             style="display:inline;fill:#052d60;fill-opacity:1;stroke:none;stroke-width:18.137;stroke-linecap:round;stroke-linejoin:round;stroke-dasharray:none;stroke-opacity:1;paint-order:normal"
             id="rect11"
             width="644.01294"
             height="469.25568"
             x="220.06473"
             y="435.27509"
             inkscape:label="Lower Half" />
          <g
             id="g10"
             inkscape:label="Top Half">
            <rect
               style="display:inline;fill:#ffd23b;fill-opacity:1;stroke:none;stroke-width:18.137;stroke-linecap:round;stroke-linejoin:round;stroke-dasharray:none;stroke-opacity:1;paint-order:normal"
               id="rect10"
               width="758.89966"
               height="377.02264"
               x="194.17476"
               y="56.634304"
               inkscape:label="Stripes Background" />
            <path
               style="display:inline;fill:#ff2a00;fill-opacity:1;stroke:none;stroke-width:1.00803px;stroke-linecap:butt;stroke-linejoin:miter;stroke-opacity:1"
               d="m 886.7314,435.27507 -200.64726,10e-6 174.75728,-75.6342 z"
               id="path10"
               sodipodi:nodetypes="cccc"
               inkscape:label="Stripe 4" />
            <path
               style="display:inline;fill:#ff2a00;fill-opacity:1;stroke:none;stroke-width:1.00803px;stroke-linecap:butt;stroke-linejoin:miter;stroke-opacity:1"
               d="M 847.89645,274.14134 686.08414,435.27508 794.49838,170.55538 Z"
               id="path9"
               sodipodi:nodetypes="cccc"
               inkscape:label="Stripe 3" />
            <path
               style="display:inline;fill:#ff2a00;fill-opacity:1;stroke:none;stroke-width:1.00803px;stroke-linecap:butt;stroke-linejoin:miter;stroke-opacity:1"
               d="m 686.08415,139.31516 -10e-6,295.95992 -119.7411,-305.82524 z"
               id="path8"
               sodipodi:nodetypes="cccc"
               inkscape:label="Stripe 2" />
            <path
               style="display:inline;fill:#ff2a00;fill-opacity:1;stroke:none;stroke-width:1.00803px;stroke-linecap:butt;stroke-linejoin:miter;stroke-opacity:1"
               d="M 394.82201,144.24783 686.08414,435.27508 220.06472,251.12225 Z"
               id="path7"
               sodipodi:nodetypes="cccc"
               inkscape:label="Stripe 1" />
          </g>
          <path
             style="fill:#ffffff;fill-opacity:1;stroke:none;stroke-width:1px;stroke-linecap:butt;stroke-linejoin:miter;stroke-opacity:1"
             d="m 588.99677,396.44013 74.43365,-3.23625 25.88997,-58.25242 27.50809,58.25242 66.34304,3.23625 -51.77993,43.68932 24.27184,75.24272 -66.34304,-46.11651 -71.19741,46.11651 22.65371,-75.24272 z"
             id="path6"
             inkscape:label="Star"
             sodipodi:nodetypes="ccccccccccc" />
          <path
             style="display:inline;fill:none;fill-opacity:1;stroke:#fe9900;stroke-width:18.137;stroke-linecap:butt;stroke-linejoin:miter;stroke-dasharray:none;stroke-opacity:1;paint-order:normal"
             d="M 243.66407,261.44779 C 332.47406,167.70298 443.10614,156.27891 579.41532,162.01584 743.61175,168.92648 865.58457,272.9338 842.74319,471.05532 815.03559,711.38542 481.84531,599.2849 385.2488,686.13689 350.11247,717.72872 332.88995,805.82618 360.8125,911.95945 295.77933,814.98712 295.39685,707.63753 329.94838,649.60993 404.60109,524.23439 511.10828,569.48288 507.4607,418.21788 503.91338,271.11 373.59582,260.6208 243.66407,261.44779 Z"
             id="path4-8"
             sodipodi:nodetypes="cssscssc"
             inkscape:label="Outline" />
        </g>
      </g>
    </g>
    <path
       id="path2"
       style="display:inline;fill:#052d60;fill-opacity:1;stroke:none;stroke-width:0.917013;stroke-linecap:round;stroke-linejoin:round;paint-order:fill markers stroke"
       d="M 497.5,25.458984 A 472.0415,472.0415 0 0 0 25.458984,497.5 472.0415,472.0415 0 0 0 497.5,969.54102 472.0415,472.0415 0 0 0 969.54102,497.5 472.0415,472.0415 0 0 0 497.5,25.458984 Z M 500,100.38867 A 399.61185,399.61185 0 0 1 899.61133,500 399.61185,399.61185 0 0 1 500,899.61133 399.61185,399.61185 0 0 1 100.38867,500 399.61185,399.61185 0 0 1 500,100.38867 Z"
       inkscape:label="Border Ring" />
    <path
       d="m 204.25742,790.79803 q -5.90008,-2.0312 -13.14125,-0.35155 -7.24116,1.67965 -12.02987,6.20482 -3.45619,3.266 -3.10794,7.42993 0.38875,4.16507 4.54011,8.55819 5.23346,5.53824 11.92452,6.11257 6.71074,0.59515 12.95956,-3.96977 -0.63358,1.62344 -1.61214,2.54815 -2.81076,2.65608 -9.83954,2.55853 -11.08057,-0.13114 -16.66818,-6.04415 -2.30194,-2.436 -3.71433,-5.51552 -1.37189,-3.07839 -1.33677,-5.75221 0.001,-4.33642 3.70716,-7.83851 3.26881,-3.08893 7.95993,-4.88126 4.69111,-1.79233 9.7807,-1.91175 4.33871,-0.0799 9.78742,1.43196 -3.49944,-6.66448 -6.2539,-9.57934 -3.95461,-4.18491 -9.01536,-4.36863 -5.02025,-0.18257 -9.1427,3.71302 -1.54071,1.45592 -3.00482,3.78536 -0.6002,-3.1376 1.71087,-5.32149 3.16471,-2.99056 9.35111,-3.20053 8.92497,-0.31486 13.84364,4.89025 3.20697,3.39374 7.46247,11.9844 0.55891,0.29951 0.65843,0.36311 l 3.57447,1.86409 q 4.71198,2.48392 8.45017,6.43981 2.81348,2.97732 3.54661,5.71341 0.77363,2.73724 -0.80872,4.23251 -1.95712,1.84942 -6.39843,-0.89027 -2.68816,-1.67689 -4.36012,-2.02816 l -0.42368,-0.78201 -1.37055,-2.40964 q -2.52926,-4.42828 -3.04787,-5.43587 l -3.38369,-6.45857 q -0.0579,-0.10296 -0.59731,-1.09088 z m 5.12494,2.21191 q 1.83492,3.90204 4.5829,8.47835 2.76765,4.59713 4.1252,6.03374 1.25918,1.33251 2.54242,1.81462 1.28324,0.48211 1.92868,-0.1278 1.14512,-1.08211 0.10884,-3.84704 -1.01545,-2.78461 -3.59284,-5.51209 -4.11201,-4.35147 -9.6952,-6.83978 z m 5.24874,49.76424 -0.0976,0.90059 q -3.11617,-0.68953 -7.54473,-2.40152 l -0.71019,-0.2738 q 3.16307,-3.17239 15.81495,-8.81501 1.96798,-0.87276 2.41796,-1.39255 0.58121,-0.6714 0.0831,-1.10262 -0.5631,-0.48747 -2.96746,-0.59869 -2.40437,-0.11122 -5.05958,0.24239 -3.98572,0.49002 -8.66516,1.78138 -4.63903,1.28846 -7.56352,2.69717 -1.68479,-1.1175 -3.56548,-1.57104 l 0.72571,-0.35687 q 4.45381,-2.16867 8.48481,-4.2866 l 8.12114,-4.26042 8.14572,-4.20126 q 5.96859,-3.13067 6.92478,-4.23522 0.65621,-0.75802 -0.0368,-1.35799 -0.32487,-0.28123 -1.55905,-0.78131 l -0.37529,-0.13545 0.32714,-0.81557 q 3.32724,1.36481 7.14486,2.20692 l 0.61774,0.11799 q -0.33457,0.43025 -0.50331,0.62517 -1.38742,1.60268 -5.18891,3.80562 -3.78274,2.18129 -13.78102,7.16578 l -7.23252,3.62782 -0.78486,0.38143 0.76191,-0.13608 q 17.18194,-3.08499 20.73383,-0.0102 1.03958,0.89995 0.13963,1.93953 -0.65621,0.75802 -2.91706,1.79403 l -3.91139,1.8047 q -9.88741,4.55004 -10.9186,5.74122 -0.41247,0.47647 0.0857,0.9077 0.58476,0.50622 2.56501,0.93228 z m 25.67912,9.16545 q -0.16919,0.88065 -0.55231,1.38104 -1.67181,2.18347 -6.87366,2.7104 -7.59933,0.78381 -10.69259,-1.58458 -2.66111,-2.03751 -0.34497,-5.06254 2.6122,-3.41168 7.55537,-5.5798 4.96591,-2.15071 10.08175,-2.09408 6.22146,0.0734 9.31472,2.44174 1.79682,1.37575 0.78677,2.69494 -0.66175,0.86429 -2.46644,1.43074 -1.78727,0.54371 -3.83254,0.52909 -1.88463,-0.0359 -4.32437,-0.71337 -2.41699,-0.66001 -3.41775,-1.42625 -1.06899,-0.81849 -0.57284,-2.31467 0.85079,0.86788 1.4194,1.30325 2.27446,1.74146 5.17764,1.90785 2.94333,0.16106 4.11011,-1.36283 0.83591,-1.09174 -0.57426,-2.17145 -2.52464,-1.93302 -7.5314,-0.85986 -3.53686,0.75548 -6.9714,2.74381 -3.43453,1.98833 -5.176,4.26279 -1.7937,2.34269 0.16233,3.84034 2.13799,1.63698 6.2289,1.05317 4.13106,-0.58914 8.49354,-3.12973 z m 57.36927,23.73719 -18.58454,9.42952 q 5.42301,-0.55687 8.90286,1.37838 3.15439,1.75425 7.28667,6.93676 l 3.65673,4.62306 q 1.60453,2.00676 2.35558,2.42444 1.37691,0.76574 4.82498,-0.95501 l 0.51155,0.90727 q -0.42023,0.22518 -0.51207,0.27244 l -2.96103,1.43439 -2.99449,1.61243 q -0.10576,0.0723 -0.62894,0.30579 -2.03306,-1.88453 -4.68304,-5.48881 -3.69276,-4.97087 -5.96212,-7.31458 -2.26935,-2.34372 -4.79787,-3.74991 -2.67874,-1.48972 -5.22464,-1.33224 -2.5459,0.15748 -6.05246,2.04236 l -0.45867,-0.94341 9.48712,-4.91779 q -0.93521,-5.56785 1.72402,-10.34951 2.24154,-4.03062 6.41574,-5.64254 4.17421,-1.61192 7.52888,0.25371 2.85397,1.58718 3.634,5.72485 l 0.28943,-0.16682 1.47502,-0.88413 q 1.7895,-1.03703 2.36033,-2.06346 0.2506,-0.45062 0.17576,-1.08225 0.48958,0.2395 0.51462,0.25342 l 1.37973,0.70175 q 0.32545,0.181 1.56059,0.67123 l 0.37833,0.14485 q -0.99348,0.43082 -3.97405,2.01823 -1.44437,0.77007 -3.18647,1.60401 l -0.72078,0.35304 q 0.0582,0.42572 0.0554,0.48971 l 0.32429,2.83534 q 0.85664,7.06471 5.5632,9.68217 2.95412,1.64287 6.93634,0.0225 4.00726,-1.60643 6.05389,-5.28655 3.24397,-5.83313 -4.9925,-10.41368 -3.57999,-1.99093 -13.6361,-6.6001 l -7.58033,-3.46176 q -2.53976,-1.15021 -5.16843,-2.61209 -4.75662,-2.6453 -5.82967,-4.7826 l 5.83995,-5.96276 0.75091,0.71261 -0.31178,0.38382 q -1.13297,1.27103 -1.50888,1.94697 -0.68221,1.22671 0.11584,2.32608 0.81197,1.07434 3.51573,2.57798 4.13076,2.29724 12.52894,6.11549 9.46638,4.31398 13.07141,6.31884 10.61478,5.9032 6.59114,13.13828 -2.40861,4.33103 -7.69598,6.47111 -6.253,2.52083 -11.88585,-0.61176 -2.82894,-1.57326 -4.21351,-3.91659 -1.38458,-2.34333 -2.13662,-6.82599 z m -0.21917,-1.43299 q -0.3188,-2.6684 -1.01096,-4.13499 -0.69216,-1.46659 -1.96893,-2.17665 -2.17804,-1.21126 -4.56288,-0.34144 -2.34588,0.85871 -3.76599,3.41227 -1.94917,3.50488 -0.78878,9.49297 z m 35.90921,17.33849 -0.12796,0.28795 q -1.09348,2.46069 -7.57342,8.29556 l -3.89145,3.53699 q -3.11491,2.84763 -3.51625,3.60969 -0.3868,0.79987 0.55268,1.15466 0.53519,0.20648 1.97201,0.21804 l 0.003,0.91038 q -4.98233,0.13696 -7.81526,-0.11885 1.22437,-2.40252 2.7978,-4.17972 1.61124,-1.79175 5.97677,-5.61962 5.57252,-4.92155 6.09019,-5.94538 0.41297,-0.78824 -0.32,-1.11396 -0.3403,-0.15122 -0.97146,-0.21227 l -1.27395,-0.0959 q -0.11634,-0.0204 -0.5788,-0.0378 l 0.11047,-0.95401 0.63116,0.0611 q 3.38265,0.21797 6.98634,0.22069 z m 4.4963,-6.02674 q 1.20417,0.53511 0.66906,1.73928 -0.30246,0.68061 -1.09647,0.98605 -0.76784,0.31707 -1.44846,0.0146 -1.23034,-0.54674 -0.69523,-1.75091 0.30245,-0.68062 1.07029,-0.99769 0.79402,-0.30543 1.50081,0.009 z m 18.41459,16.00011 -2.01597,2.31735 q -0.92984,-0.6106 -1.70328,-0.91376 -3.09375,-1.21264 -8.475,2.15476 -2.54213,1.61884 -4.78767,3.81544 -2.21887,2.20706 -6.12213,6.98451 l -0.64881,0.7918 q -1.87992,-0.30611 -3.66254,-0.38948 l 0.60699,-0.68512 4.79317,-5.3209 q 6.86717,-7.70783 7.4944,-9.30804 0.32406,-0.82678 -0.39603,-1.10903 -0.40006,-0.15681 -2.06916,0.0197 l -0.0226,-0.96268 q 4.4447,-0.35004 8.27276,-1.4033 -0.0815,0.52188 -0.23829,0.92193 -0.80495,2.05361 -4.52688,6.13294 l 0.93279,-0.49587 q 8.89035,-4.39185 11.47736,-3.37783 0.56008,0.21953 1.09094,0.82759 z m 13.24418,24.6165 0.25853,0.86818 q -3.56231,1.21581 -8.91826,0.82021 1.03559,-2.70534 6.33905,-8.41504 -4.86584,2.9896 -9.48641,4.4922 -4.59333,1.51149 -6.77145,0.79905 -1.90584,-0.62338 -1.11326,-3.04653 1.34473,-4.11119 6.57875,-7.67357 5.24293,-3.58961 11.80344,-4.84947 7.41088,-1.46395 13.6185,0.5665 0.87124,0.28497 0.65751,0.93841 -0.17811,0.54452 -1.49361,1.80204 -1.74453,-0.93229 -3.48702,-1.50224 -8.30405,-2.71617 -16.40446,1.77728 -5.96023,3.29471 -7.48307,7.95043 -0.71243,2.17811 0.89392,2.70353 1.36132,0.44528 4.68648,-1.05908 3.33406,-1.53158 6.36403,-3.97639 4.18416,-3.39341 6.70547,-7.6924 0.93919,1.09082 0.31581,2.99667 -0.86383,2.64096 -4.65411,5.19875 1.34249,0.31856 3.4893,0.29742 l -0.36921,0.3916 q -4.48337,4.9532 -4.80397,5.93336 -0.25826,0.78956 0.49467,0.97556 0.69847,0.16818 2.77937,-0.29647 z m 30.15561,-11.84948 -0.58234,0.73355 -3.90113,-1.04651 -0.34752,0.41097 q -0.82257,0.96569 -4.58653,5.70976 -1.52704,1.93339 -4.27409,5.31903 -3.22211,3.94034 -3.54126,5.13005 -0.31915,1.18971 0.89823,1.51628 1.46638,0.39337 4.47197,-0.6392 l 0.24971,0.83811 q -2.00147,0.82739 -4.36938,1.14126 -2.36792,0.31387 -3.7513,-0.0572 -2.07507,-0.55665 -1.63717,-2.18904 0.31172,-1.16204 4.07568,-5.90611 l 4.63646,-5.78534 q 3.89892,-4.91547 4.54603,-5.77993 l 0.44739,-0.56214 -3.62446,-0.97228 0.61001,-0.72612 0.35967,0.0965 q 2.37942,0.6383 3.38218,0.10651 1.03042,-0.52436 3.36923,-3.60429 0.40759,0.139 0.54593,0.17611 1.32804,0.35625 2.71749,0.37308 -0.51959,0.72072 -1.78413,2.33896 l -1.36442,1.76941 -0.44738,0.56214 z m 15.20941,14.69526 q 0.22191,0.86886 0.0883,1.48475 -0.58292,2.68751 -5.06525,5.37929 -6.5422,3.94508 -10.34951,3.11928 -3.2754,-0.71044 -2.46781,-4.43376 0.91081,-4.19923 4.46024,-8.26583 3.57742,-4.06053 8.23041,-6.18768 5.66048,-2.58279 9.46779,-1.75699 2.2116,0.4797 1.85941,2.1034 -0.23073,1.06381 -1.62243,2.34479 -1.38563,1.25299 -3.24244,2.11066 -1.72054,0.76999 -4.2165,1.19591 -2.46797,0.43199 -3.69974,0.16482 -1.31576,-0.28539 -1.50392,-1.85042 1.13935,0.42299 1.83922,0.5748 2.79949,0.6072 5.49717,-0.47845 2.73175,-1.10758 3.13858,-2.98324 0.29146,-1.34375 -1.44422,-1.72022 -3.10744,-0.674 -7.18065,2.42894 -2.8785,2.1896 -5.13946,5.45113 -2.26095,3.26153 -2.86816,6.06102 -0.62543,2.88347 1.78214,3.40567 2.63152,0.57078 6.08443,-1.69942 3.48697,-2.29211 6.35238,-6.44845 z m 62.01597,-2.95074 -12.80032,16.44545 q 4.66968,-2.81304 8.64233,-2.54376 3.60112,0.24409 9.54682,3.17372 l 5.27721,2.62592 q 2.3063,1.13252 3.1637,1.19063 1.57192,0.10655 3.95905,-2.91863 l 0.84918,0.60308 q -0.28434,0.38269 -0.34731,0.46456 l -2.0684,2.55868 -2.02286,2.73405 q -0.0649,0.11044 -0.43887,0.54448 -2.64199,-0.83945 -6.57447,-2.97225 -5.4579,-2.92528 -8.50922,-4.07959 -3.05132,-1.1543 -5.93792,-1.34997 -3.05809,-0.20728 -5.2946,1.01928 -2.23651,1.22656 -4.60668,4.42516 l -0.81673,-0.6583 6.49001,-8.4894 q -3.21703,-4.63964 -2.84702,-10.09847 0.31189,-4.60142 3.40239,-7.83733 3.09049,-3.23591 6.92025,-2.97632 3.25815,0.22084 5.72579,3.63252 l 0.19085,-0.27418 0.95815,-1.42806 q 1.17757,-1.7003 1.257,-2.87209 0.0349,-0.51445 -0.3018,-1.05407 0.54496,0.008 0.57354,0.0102 l 1.54721,0.0475 q 0.37154,0.0252 1.69786,-0.0572 l 0.404,-0.03 q -0.71547,0.81285 -2.73639,3.51831 -0.97898,1.3118 -2.20015,2.80816 l -0.50184,0.62635 q 0.23397,0.3604 0.25868,0.4195 l 1.50074,2.42736 q 3.78333,6.02747 9.15642,6.39167 3.37247,0.22859 6.28568,-2.9332 2.94178,-3.15985 3.22655,-7.36115 0.45138,-6.6592 -8.95153,-7.29655 -4.08698,-0.27703 -15.1485,-0.16546 l -8.33284,0.0956 q -2.78778,0.0407 -5.78871,-0.16268 -5.43025,-0.36807 -7.31124,-1.84501 l 2.74505,-7.88189 0.98287,0.32502 -0.11867,0.48006 q -0.48391,1.63247 -0.53621,2.40414 -0.0949,1.40043 1.09528,2.05533 1.19215,0.62633 4.27881,0.83555 4.71575,0.31965 13.94038,0.19841 10.40224,-0.12755 14.5178,0.15142 12.11803,0.82138 11.55817,9.08108 -0.33514,4.94439 -4.20794,9.13217 -4.5844,4.94348 -11.01496,4.50761 -3.22957,-0.21891 -5.48016,-1.74962 -2.2506,-1.5307 -4.83983,-5.26644 z m -0.8085,-1.20326 q -1.42468,-2.27865 -2.67545,-3.31091 -1.25076,-1.03226 -2.70836,-1.13106 -2.48648,-0.16854 -4.27393,1.63398 -1.75693,1.77587 -1.95453,4.69106 -0.27121,4.00124 3.32851,8.92522 z m 47.75331,20.19526 0.54102,0.72656 q -2.92793,2.36546 -8.09389,3.83365 0.0433,-2.89645 3.06285,-10.08045 -3.54288,4.47909 -7.36618,7.47738 -3.79467,2.99731 -6.08497,3.07639 -2.00402,0.0692 -2.09199,-2.47878 -0.14925,-4.32294 3.54266,-9.46642 3.69092,-5.17211 9.4195,-8.6088 6.45711,-3.92046 12.98448,-4.14582 0.91612,-0.0316 0.93984,0.65546 0.0198,0.57258 -0.78374,2.20544 -1.95862,-0.27633 -3.79086,-0.21307 -8.73178,0.30147 -14.79586,7.30395 -4.46587,5.14154 -4.29685,10.03706 0.0791,2.29031 1.76817,2.23199 1.43144,-0.0494 4.03754,-2.60441 2.60511,-2.58362 4.61096,-5.92045 2.76397,-4.62417 3.6552,-9.52763 1.25673,0.70184 1.32593,2.70586 0.0959,2.77699 -2.5852,6.48109 1.37022,-0.16196 3.37915,-0.91923 l -0.21223,0.49459 q -2.5092,6.19184 -2.47362,7.22247 0.0287,0.83024 0.79967,0.74629 0.71374,-0.082 2.50842,-1.23312 z m 27.97382,-21.71951 -0.76123,2.9757 q -1.10498,-0.12824 -1.9322,-0.052 -3.30888,0.30511 -6.60596,5.72974 -1.54496,2.58769 -2.56555,5.55854 -0.99206,2.96822 -2.33548,8.98941 l -0.22434,0.99878 q -1.81729,0.57031 -3.44765,1.296 l 0.23487,-0.88468 1.89468,-6.90628 q 2.67656,-9.97018 2.51874,-11.68167 -0.0815,-0.88427 -0.85172,-0.81325 -0.42787,0.0394 -1.84014,0.9464 l -0.45236,-0.85008 q 3.81461,-2.30793 6.76255,-4.96746 0.16144,0.50293 0.2009,0.9308 0.20254,2.19641 -1.29222,7.51237 l 0.61095,-0.86182 q 5.97292,-7.91522 8.73983,-8.17036 0.59902,-0.0552 1.34633,0.24982 z m 17.10182,-2.65389 -0.25075,0.9024 -4.00074,0.5551 -0.16007,0.51385 q -0.38163,1.20977 -2.00129,7.04503 -0.6537,2.3754 -1.86567,6.56348 -1.43352,4.88398 -1.26424,6.10407 0.16929,1.22008 1.41774,1.04686 1.50383,-0.20866 3.87015,-2.33004 l 0.55635,0.67473 q -1.52135,1.54142 -3.58017,2.75253 -2.05882,1.21111 -3.47752,1.40795 -2.12805,0.29527 -2.36033,-1.3788 -0.16535,-1.19171 1.45431,-7.02697 l 2.01786,-7.13408 q 1.67723,-6.04569 1.93667,-7.0939 l 0.19319,-0.69197 -3.71699,0.51574 0.27913,-0.90634 0.36886,-0.0512 q 2.44016,-0.33857 3.15672,-1.21884 0.74492,-0.88421 1.69989,-4.63174 0.42954,-0.0307 0.57141,-0.0504 1.36196,-0.18897 2.64829,-0.71449 -0.19794,0.86615 -0.73258,2.84907 l -0.56776,2.16104 -0.1932,0.69197 z m 11.032,-1.44237 q 0.6744,1.06521 1.00296,2.75226 0.67356,3.45846 0.28581,10.15876 3.30355,-6.71367 6.48684,-10.74818 3.20592,-4.06809 5.51156,-4.51713 1.63082,-0.31761 2.162,2.40979 1.34712,6.91692 -5.06958,17.12612 -2.91675,4.65383 -5.78884,7.13934 -2.8721,2.4855 -6.96379,3.95362 -3.51764,1.26877 -4.9013,2.70561 -1.38365,1.43684 -0.99485,3.43318 0.29571,1.51835 2.02288,2.14505 1.70454,0.66028 4.15077,0.18387 3.00857,-0.58595 5.2208,-2.56355 0.0378,3.64065 -4.79841,4.58253 -2.89611,0.56404 -4.99208,-0.45777 -2.09597,-1.02182 -2.5231,-3.21499 -0.53666,-2.75552 1.59933,-6.3234 1.04224,-1.69137 2.45655,-2.52131 1.38618,-0.82447 5.43732,-2.05121 3.66297,-1.12197 5.6331,-2.99405 3.17812,-3.01206 5.0085,-7.25002 1.06857,-2.45528 1.56058,-5.32359 0.48652,-2.89642 0.13058,-4.72406 -0.44904,-2.30564 -1.99551,-2.00446 -2.61493,0.50928 -6.16459,7.00822 -3.54965,6.49895 -5.48829,14.37682 l -0.14901,0.58352 -0.98411,0.19166 0.0731,-1.12323 q 1.00949,-11.89941 0.0348,-16.90434 -0.345,-1.7714 -1.49781,-1.54688 -0.478,0.0931 -1.23318,0.56119 -0.12963,0.0836 -0.36626,0.21725 l -0.41734,-0.79424 q 0.30455,-0.23442 0.37795,-0.30708 l 2.39115,-1.80816 2.40906,-2.01594 q 0.0734,-0.0727 0.37248,-0.3352 z m 59.76056,-13.61712 q -1.49124,0.31897 -2.44764,0.61983 -7.18665,2.26076 -9.27584,8.984 -0.81523,2.65884 -0.95961,5.82736 -0.15298,3.14119 0.44874,5.05399 0.42121,1.33896 1.4614,1.97269 1.05892,0.59781 2.26125,0.21958 2.84187,-0.89399 4.84936,-6.54048 2.0075,-5.64649 0.81264,-9.44476 -0.26648,-0.8471 -0.91153,-1.2748 -0.62632,-0.46363 -1.25481,-0.26592 -2.18606,0.68768 -2.80546,5.6873 -0.30855,-0.50353 -0.43749,-0.91341 -0.53296,-1.6942 0.98659,-4.21424 1.51954,-2.52004 3.40501,-3.11317 1.25698,-0.39542 2.45805,0.36788 1.19248,0.73598 1.65667,2.21156 1.55589,4.94595 -3.01134,12.47875 -3.89758,6.51134 -7.47724,7.63743 -1.55756,0.48997 -2.94838,-0.30373 -1.36349,-0.8023 -1.89644,-2.49649 -1.17766,-3.74362 0.13746,-8.63177 1.33386,-4.92407 4.66828,-9.21623 1.84284,-2.35148 4.27609,-4.25805 2.46056,-1.91518 4.40069,-2.5255 1.20233,-0.37823 1.53757,0.68748 0.12894,0.40988 0.066,1.4507 z m 18.71254,-9.15341 0.0674,0.92223 -4.35051,1.61508 0.35211,23.33638 q -1.04734,0.38881 -1.30673,0.76011 -0.25939,0.3713 -0.30026,1.57816 -0.28488,6.06421 -0.94826,8.96886 -0.73559,3.45092 -2.40015,5.96335 -1.69141,2.52239 -3.70554,3.27012 -1.10105,0.40875 -2.0355,0.11397 -0.9613,-0.2848 -1.28033,-1.14416 -0.0997,-0.26855 -0.15485,-0.82864 1.57978,-0.18925 2.92253,-0.68773 4.69963,-1.74468 5.8207,-7.20263 1.1042,-5.42112 0.47348,-23.58176 l -0.29398,-8.44658 -0.0436,-1.02273 -2.9809,1.10663 0.0163,-0.86161 q 0.29541,-0.10967 0.32226,-0.11964 l 0.732,-0.33286 q 1.90671,-0.70784 2.09828,-3.89568 0.23855,-4.21364 1.41828,-7.12664 1.20658,-2.92298 4.03749,-6.32675 3.09335,-3.68453 5.67144,-4.64161 1.85299,-0.6879 2.09837,0.13769 0.0928,0.33223 0.13778,1.93499 l 0.12359,4.20142 -0.85936,0.31903 q -0.0979,-1.82758 -0.41693,-2.68694 -0.50845,-1.3696 -3.00596,-0.44243 -3.65228,1.35587 -5.12598,4.95858 -1.45682,3.56588 -1.39744,10.96897 l 0.0175,0.78796 z m 44.65003,-42.95471 1.05749,0.28245 q -0.43253,1.75302 -0.22496,2.93984 0.20757,1.18681 1.32102,3.28758 4.56115,8.60555 14.79394,18.61423 5.69298,5.54167 6.90788,4.89774 0.58214,-0.30854 1.16197,-2.33417 l 0.95473,0.27207 -0.12933,0.49002 q -0.94251,3.48226 -1.58585,6.61144 l -0.17083,0.90106 q -6.74261,-4.95293 -13.078,-11.64547 -6.31007,-6.70595 -8.92603,-11.64149 -1.10004,-2.07545 -2.21831,-4.91934 l -0.28628,-0.72363 q -0.91138,3.17398 -2.31067,10.62674 -0.87643,4.6468 -1.71617,8.13944 l -0.23335,0.96662 q 1.33841,-0.83907 3.05952,-1.7513 l 7.43242,-3.77725 1.06456,-0.4994 q 0.43034,3.01399 1.55522,7.21605 l -0.9618,0.50977 q -0.37007,-1.55457 -0.77252,-2.31389 -0.50978,-0.96179 -1.32883,-0.91672 -0.81905,0.0451 -2.8692,1.13169 l -3.67001,1.94519 -4.08536,2.2626 -0.4928,0.29361 -0.30928,1.00687 q -2.64988,8.21286 -3.68959,10.83887 -1.03972,2.626 -3.45909,7.05314 l -0.4538,0.85652 q 1.71655,-1.10434 3.79201,-2.20438 4.78367,-2.53546 7.4757,-3.57325 l 5.04008,-1.99052 q 2.01902,-0.77834 3.53765,-1.58325 3.92312,-2.07934 5.17847,-5.33837 1.28066,-3.27245 -0.22844,-7.46539 1.23162,0.0605 1.70115,0.94634 1.1537,2.1767 -0.26792,6.5289 -2.22317,6.7547 -7.53836,9.57188 -1.77173,0.93906 -5.03401,2.24667 -7.93307,3.19967 -12.21054,5.46683 l -5.24812,2.94373 -0.48089,0.25488 0.23963,-3.40151 q 5.3941,-5.97139 8.36568,-14.12782 2.97158,-8.15643 6.49374,-26.59027 1.69945,-8.84384 2.84748,-12.30535 z m 39.07485,-2.43016 0.70485,2.98956 q -1.03855,0.39857 -1.73617,0.84961 -2.79048,1.80416 -3.1974,8.13912 -0.16945,3.00904 0.30335,6.11452 0.49685,3.08993 2.09755,9.04789 l 0.26419,0.98898 q -1.34589,1.34774 -2.45412,2.74649 l -0.20198,-0.89276 -1.52251,-6.99775 q -2.24997,-10.07503 -3.18316,-11.51838 -0.48215,-0.74573 -1.13165,-0.3258 -0.36084,0.2333 -1.19181,1.69157 l -0.79488,-0.54354 q 2.31021,-3.81324 3.68951,-7.53627 0.37618,0.37079 0.60947,0.73163 1.19759,1.8523 2.3373,7.25552 l 0.14185,-1.04684 q 1.62342,-9.78218 3.95684,-11.29083 0.50518,-0.32661 1.30877,-0.40272 z m 10.07401,-8.33077 0.18271,0.25672 q 1.56139,2.1938 3.28515,10.74155 l 1.06353,5.15001 q 0.86545,4.13069 1.31709,4.86406 0.49159,0.7401 1.27521,0.11206 0.45015,-0.35555 1.1915,-1.5864 l 0.78511,0.46088 q -2.41833,4.35821 -4.0806,6.66643 -1.44469,-2.27686 -2.17346,-4.53585 -0.72204,-2.29893 -1.79462,-8.00507 -1.39953,-7.30178 -2.01727,-8.26853 -0.46825,-0.75671 -1.12173,-0.29161 -0.30339,0.21593 -0.67722,0.72812 l -0.73106,1.04772 q -0.0767,0.0898 -0.32715,0.47896 l -0.76492,-0.58072 0.37383,-0.51219 q 1.90952,-2.80063 3.7463,-5.90109 z m -2.89866,-6.93801 q 1.07356,-0.76409 1.83764,0.30948 0.43187,0.60679 0.29059,1.44572 -0.11795,0.82231 -0.72474,1.25418 -1.0969,0.7807 -1.86099,-0.29287 -0.43187,-0.60679 -0.31392,-1.42911 0.14128,-0.83892 0.77142,-1.2874 z m 13.91798,0.27369 12.19042,-9.79982 q 0.0338,0.41176 0.0244,0.49224 l 0.18004,2.48832 0.11916,2.13458 q 0.45861,6.76216 -0.64413,10.81442 -1.12052,4.0298 -4.45429,7.80258 1.87069,-0.12942 4.40586,0.16499 3.39802,0.41501 5.01493,-0.86543 1.81902,-1.44049 1.60808,-4.01396 -0.22872,-2.59593 -2.38056,-5.31323 -0.97811,-1.23514 -2.44003,-2.34294 2.1982,-0.31569 3.8521,1.77282 1.49384,1.88639 1.93519,5.81209 0.55752,4.85681 -2.54155,7.31099 -2.60502,2.06292 -7.36565,1.26537 -2.90111,-0.47965 -3.66465,0.125 -0.83091,0.658 -0.51794,3.40645 l -0.85337,0.67579 q -0.41604,-3.61688 -1.14932,-7.31138 1.29601,-0.62439 2.21675,-1.35352 3.57067,-2.82764 5.02896,-7.30762 1.46296,-4.52022 0.95944,-11.24681 -1.12662,0.74601 -2.42913,1.77748 -5.29986,4.19698 -6.20645,5.68226 -0.90659,1.48528 -0.0545,4.68379 l 0.12734,0.48379 -0.76354,0.60466 -0.18446,-0.69435 q -0.74068,-3.10401 -1.78837,-6.54954 z m 31.6732,-24.52468 q -1.22594,0.90698 -1.97238,1.57634 -5.60893,5.0298 -4.73149,12.01526 0.357,2.758 1.53555,5.70272 1.15943,2.92339 2.49816,4.41627 0.93711,1.04501 2.14625,1.19197 1.21134,0.10652 2.14972,-0.73497 2.21798,-1.98897 1.71133,-7.96025 -0.50665,-5.97128 -3.16499,-8.9357 -0.59286,-0.66113 -1.35704,-0.78387 -0.76197,-0.16319 -1.25248,0.27667 -1.70614,1.52998 -0.20305,6.33836 -0.48912,-0.33091 -0.77599,-0.65081 -1.18573,-1.32226 -0.84405,-4.24508 0.34168,-2.92282 1.81322,-4.24242 0.98103,-0.87974 2.39023,-0.68131 1.39007,0.1771 2.4228,1.32874 3.46157,3.86014 2.4174,12.60728 -0.85675,7.5402 -3.65055,10.04554 -1.21563,1.0901 -2.81016,0.94245 -1.5732,-0.16679 -2.75893,-1.48905 -2.62008,-2.92176 -3.44362,-7.9163 -0.82134,-5.03498 0.44017,-10.32172 0.70574,-2.90301 2.13301,-5.64502 1.44859,-2.76113 2.96279,-4.11899 0.93838,-0.84148 1.68424,-0.01 0.28687,0.3199 0.65986,1.29363 z m 28.99415,-5.09737 0.87302,0.21474 q -0.65002,4.17887 -3.24599,8.21371 -2.95159,-3.74038 -6.34863,-14.01949 l -1.23049,-3.81709 q -0.6461,-1.9589 -1.01406,-2.32011 -0.55195,-0.54181 -0.99343,-0.0921 -0.62208,0.63372 -0.93695,3.81691 -0.29481,3.16275 -0.0596,6.68521 0.47264,7.28798 3.6026,14.97673 -0.71829,1.18153 -1.6877,3.68207 -1.99699,-5.65334 -4.91427,-12.2502 -2.91766,-6.63738 -3.79668,-7.50027 -0.73593,-0.72242 -1.31788,-0.12959 -0.301,0.30664 -0.99773,1.62977 -0.0598,0.10184 -0.15941,0.28507 l -0.77456,-0.5195 q 1.99171,-3.66462 3.23718,-6.97798 l 0.13822,-0.38615 q 0.30588,0.21999 0.4081,0.32032 1.81937,1.78598 5.11888,10.28342 l 0.33233,0.88821 -0.0473,-0.7288 q -0.53171,-7.10512 0.0502,-12.07336 0.58156,-5.00875 2.1468,-6.60326 0.98329,-1.00168 2.00541,0.002 1.06301,1.04349 3.64702,8.83858 3.06395,9.30989 3.84077,10.07244 0.59283,0.58195 1.13464,0.03 0.60202,-0.61327 0.97091,-2.3385 z m 19.64683,-22.55054 0.90096,0.0941 q -0.24311,3.75621 -2.66225,8.55105 -2.10144,-1.9938 -5.34104,-9.08128 0.89524,5.64027 0.51119,10.48381 -0.36539,4.82182 -1.85858,6.56024 -1.30654,1.52113 -3.24054,-0.14005 -3.28128,-2.81839 -4.56433,-9.01834 -1.30478,-6.21861 0.0473,-12.76073 1.48971,-7.40574 5.74529,-12.36026 0.59728,-0.69537 1.11881,-0.24741 0.4346,0.37329 1.09156,2.07044 -1.52998,1.25368 -2.72453,2.64442 -5.69278,6.62776 -4.64896,15.832 0.75737,6.768 4.47325,9.9597 1.73843,1.49318 2.83966,0.21109 0.93324,-1.08651 0.81893,-4.73434 -0.13604,-3.6665 -1.2321,-7.40234 -1.52958,-5.16554 -4.53313,-9.14259 1.36757,-0.44912 2.8887,0.85742 2.10784,1.8105 3.01671,6.29184 0.80899,-1.11771 1.61267,-3.10852 l 0.22009,0.49114 q 2.8554,6.04 3.63769,6.71193 0.63018,0.54129 1.09067,-0.0828 0.42316,-0.58059 0.79196,-2.6806 z"
       id="text11"
       style="display:inline;font-size:58.6667px;line-height:1.25;font-family:Vivaldi;-inkscape-font-specification:Vivaldi;letter-spacing:7.5px;white-space:pre;fill:#ffffff"
       inkscape:label="Title"
       transform="translate(-6.6742759)"
       aria-label="The Pirate Party of Arizona" />
  </g>
  <metadata
     id="metadata11">
    <rdf:RDF>
      <cc:Work
         rdf:about="">
        <dc:title>AZPP</dc:title>
      </cc:Work>
    </rdf:RDF>
  </metadata>
</svg>
